<svg width="200" height="137" viewBox="0 0 200 137" fill="none" xmlns="http://www.w3.org/2000/svg">
<path d="M2.44434 134.148C9.12102 135.451 15.4856 132.412 21.7742 131.014C25.7607 130.128 30.4243 129.074 34.1326 127.317C36.0027 126.431 39.0768 125.5 41.104 125.275C43.2681 125.035 45.1417 123.352 47.16 122.775C50.8992 121.707 54.4495 118.263 58.5326 117.635C62.2603 117.061 66.5482 113.634 69.6235 111.825C70.5341 111.29 73.7329 109.466 74.0246 108.445C74.5992 106.434 77.6641 105.565 78.637 103.727C80.2801 100.623 83.41 98.3046 85.1507 95.1713C87.3703 91.176 91.1276 87.2676 94.0234 83.7283C99.5012 77.0333 104.046 69.5998 106.347 61.5465C108.705 53.2926 94.9655 51.7584 89.904 51.7584C82.1259 51.7584 77.8624 58.2478 77.8624 65.3843C77.8624 74.4932 84.8095 79.2953 92.5799 81.6862C131.924 93.792 164.551 53.3993 181.483 22.9221C183.5 19.292 185.662 16.0329 187.645 12.4649C188.672 10.615 189.507 8.6977 190.532 6.76105C191.113 5.66414 193.137 3.83315 193.137 2.64157C193.137 2.3335 184.689 4.95655 183.842 5.63436C182.791 6.47555 173.843 9.55163 173.843 10.0707C173.843 12.0609 183.174 13.862 184.652 14.6831C187.362 16.1889 191.805 16.7268 194.757 17.5703C195.343 17.7378 198.444 21.4432 197.609 18.5209C197.15 16.9134 196.484 14.9192 196.377 13.0987C196.175 9.66713 193.841 6.50083 193.841 2.95846" stroke="white" stroke-width="4" stroke-linecap="round" stroke-linejoin="round"/>
</svg>
